# 3ds Max Wavefront OBJ Exporter v0.99 - (c)2007 guruware
# File Created: 11.04.2022 16:15:27

mtllib wumpa_optimizada.mtl

#
# object wumpa
#

v  -3.5516 3.2288 2.9059
v  -3.5516 0.9686 -1.9373
v  -3.5516 0.9686 2.9059
v  -3.5516 3.2288 -1.9373
v  -3.5516 5.4889 2.9059
v  -3.5516 5.4889 -1.9373
v  -3.2288 0.9686 2.9059
v  -3.2288 0.6458 2.9059
v  -3.2288 0.6458 3.2288
v  -3.2288 0.6458 0.9686
v  -3.2288 0.9686 0.9686
v  -3.2288 0.6458 -2.2601
v  -3.2288 0.9686 -1.9373
v  -3.2288 2.9059 3.2288
v  -3.2288 2.9059 2.9059
v  -3.2288 3.2288 2.9059
v  -3.2288 3.2288 -1.9373
v  -3.2288 3.2288 -2.2601
v  -3.2288 5.4889 3.2288
v  -3.2288 5.4889 2.9059
v  -3.2288 5.4889 -1.9373
v  -3.2288 5.4889 -2.2601
v  -3.2288 5.8118 3.2288
v  -3.2288 5.8118 -2.2601
v  -3.2288 8.7176 -0.6458
v  -3.2288 8.0719 -3.5516
v  -3.2288 8.0719 -0.6458
v  -3.2288 8.7176 -3.5516
v  -2.9059 0.3229 0.6458
v  -2.9059 0.0000 0.6458
v  -2.9059 0.0000 0.9686
v  -2.9059 0.0000 -1.2915
v  -2.9059 0.3229 -1.2915
v  -2.9059 0.0000 -2.2601
v  -2.9059 0.6458 3.2288
v  -2.9059 0.0000 2.9059
v  -2.9059 0.0000 3.2288
v  -2.9059 0.6458 2.9059
v  -2.9059 0.6458 0.9686
v  -2.9059 0.6458 -2.2601
v  -2.9059 6.1346 2.9059
v  -2.9059 5.8118 -1.9373
v  -2.9059 5.8118 2.9059
v  -2.9059 6.1346 -1.9373
v  -2.5830 2.9059 3.5516
v  -2.5830 0.3229 3.2288
v  -2.5830 0.3229 3.5516
v  -2.5830 2.9059 3.2288
v  -2.5830 3.2288 -2.2601
v  -2.5830 0.3229 -2.5830
v  -2.5830 0.3229 -2.2601
v  -2.5830 3.2288 -2.5830
v  -2.5830 5.4889 3.5516
v  -2.5830 5.4889 3.2288
v  -2.5830 5.4889 -2.2601
v  -2.5830 5.4889 -2.5830
v  -2.5830 5.8118 3.5516
v  -2.5830 5.8118 3.2288
v  -2.5830 5.8118 -2.2601
v  -2.5830 5.8118 -2.5830
v  -2.5830 6.1346 3.2288
v  -2.5830 5.8118 2.9059
v  -2.5830 6.1346 2.9059
v  -2.5830 6.1346 -1.9373
v  -2.5830 5.8118 -1.9373
v  -2.5830 6.1346 -2.2601
v  -2.5830 6.4575 2.9059
v  -2.5830 6.4575 -1.9373
v  -2.5830 8.0719 0.3229
v  -2.5830 7.4261 -2.5830
v  -2.5830 7.4261 0.3229
v  -2.5830 8.0719 -0.6458
v  -2.5830 8.0719 -2.5830
v  -2.2601 2.9059 3.8745
v  -2.2601 0.6458 3.5516
v  -2.2601 0.6458 3.8745
v  -2.2601 2.9059 3.5516
v  -2.2601 3.2288 -2.5830
v  -2.2601 0.6458 -2.9059
v  -2.2601 0.6458 -2.5830
v  -2.2601 3.2288 -2.9059
v  -2.2601 5.4889 3.8745
v  -2.2601 5.4889 3.5516
v  -2.2601 5.4889 -2.5830
v  -2.2601 5.4889 -2.9059
v  -2.2601 5.8118 3.8745
v  -2.2601 5.8118 3.5516
v  -2.2601 5.8118 -2.5830
v  -2.2601 5.8118 -2.9059
v  -2.2601 6.1346 3.5516
v  -2.2601 5.8118 3.2288
v  -2.2601 6.1346 3.2288
v  -2.2601 6.1346 -2.2601
v  -2.2601 5.8118 -2.2601
v  -2.2601 6.1346 -2.5830
v  -2.2601 6.4575 3.2288
v  -2.2601 6.1346 2.9059
v  -2.2601 6.4575 2.9059
v  -2.2601 6.4575 -1.9373
v  -2.2601 6.1346 -1.9373
v  -2.2601 6.4575 -2.2601
v  -1.9373 2.9059 4.1974
v  -1.9373 0.9686 3.8745
v  -1.9373 0.9686 4.1974
v  -1.9373 2.9059 3.8745
v  -1.9373 2.9059 -2.9059
v  -1.9373 0.9686 -3.2288
v  -1.9373 0.9686 -2.9059
v  -1.9373 2.9059 -3.2288
v  -1.9373 3.2288 -2.9059
v  -1.9373 5.4889 4.1974
v  -1.9373 5.4889 3.8745
v  -1.9373 5.4889 -2.9059
v  -1.9373 5.4889 -3.2288
v  0.3229 7.4261 0.3229
v  0.3229 6.4575 -0.3229
v  0.3229 6.4575 0.3229
v  0.3229 7.4261 -0.3229
v  0.3229 8.0719 3.2288
v  0.3229 7.4261 3.2288
v  0.3229 8.0719 0.3229
v  0.3229 8.7176 0.3229
v  0.3229 8.0719 -0.3229
v  0.3229 8.7176 -0.3229
v  1.2915 8.7176 3.5516
v  1.2915 8.0719 3.2288
v  1.2915 8.0719 3.5516
v  1.2915 8.0719 0.6458
v  1.2915 8.7176 0.6458
v  -2.9059 8.0719 -3.2288
v  -2.9059 8.0719 -3.5516
v  -2.9059 8.3948 -3.2288
v  -2.9059 8.3948 -3.5516
v  -2.2601 7.4261 -2.2601
v  -2.2601 7.4261 -2.5830
v  -2.2601 7.7490 -2.2601
v  -2.2601 7.7490 -2.5830
v  -0.3229 8.0719 -0.6458
v  -0.3229 8.0719 -2.5830
v  -0.3229 8.3948 -3.2288
v  -0.3229 8.0719 -3.2288
v  -0.3229 8.7176 -0.6458
v  -0.3229 8.3948 -3.5516
v  -0.3229 8.7176 -3.5516
v  0.3229 7.4261 -2.2601
v  0.3229 7.7490 -2.2601
v  0.3229 7.7490 -2.5830
v  0.3229 8.0719 -2.5830
v  0.6458 7.4261 0.6458
v  0.6458 7.4261 0.3229
v  0.6458 7.7490 0.6458
v  0.6458 7.7490 0.3229
v  0.9686 6.4575 0.3229
v  0.9686 6.4575 -0.3229
v  0.9686 7.7490 0.3229
v  0.9686 8.0719 0.3229
v  0.9686 8.7176 0.3229
v  0.9686 8.7176 -0.3229
v  1.6144 8.0719 0.9686
v  1.6144 8.0719 0.6458
v  1.6144 8.3948 0.9686
v  1.6144 8.3948 0.6458
v  2.5830 0.9686 4.1974
v  2.5830 0.9686 3.8745
v  2.5830 2.9059 4.1974
v  2.5830 2.9059 3.8745
v  2.5830 0.9686 -2.9059
v  2.5830 0.9686 -3.2288
v  2.5830 2.9059 -2.9059
v  2.5830 2.9059 -3.2288
v  2.5830 5.4889 4.1974
v  2.5830 5.4889 3.8745
v  2.5830 5.4889 -2.9059
v  2.5830 5.4889 -3.2288
v  2.9059 0.6458 3.8745
v  2.9059 0.6458 3.5516
v  2.9059 2.9059 3.8745
v  2.9059 2.9059 3.5516
v  2.9059 0.6458 -2.5830
v  2.9059 0.6458 -2.9059
v  2.9059 2.9059 -2.5830
v  2.9059 2.9059 -2.9059
v  2.9059 5.4889 3.8745
v  2.9059 5.4889 3.5516
v  2.9059 5.4889 -2.5830
v  2.9059 5.4889 -2.9059
v  2.9059 5.8118 3.8745
v  2.9059 5.8118 3.5516
v  2.9059 5.8118 -2.5830
v  2.9059 5.8118 -2.9059
v  2.9059 5.8118 3.2288
v  2.9059 6.1346 3.5516
v  2.9059 6.1346 3.2288
v  2.9059 5.8118 -2.2601
v  2.9059 6.1346 -2.2601
v  2.9059 6.1346 -2.5830
v  2.9059 6.4575 3.2288
v  2.9059 6.4575 -2.2601
v  3.2288 0.0000 3.2288
v  3.2288 0.0000 2.5830
v  3.2288 0.3229 3.2288
v  3.2288 0.0000 0.6458
v  3.2288 0.3229 2.5830
v  3.2288 0.0000 -1.2915
v  3.2288 0.3229 0.6458
v  3.2288 0.0000 -2.2601
v  3.2288 0.3229 -1.2915
v  3.2288 0.3229 -2.2601
v  3.2288 0.3229 3.5516
v  3.2288 2.9059 3.5516
v  3.2288 2.9059 3.2288
v  3.2288 0.3229 -2.5830
v  3.2288 2.9059 -2.2601
v  3.2288 2.9059 -2.5830
v  3.2288 5.4889 3.5516
v  3.2288 5.4889 3.2288
v  3.2288 5.4889 -2.2601
v  3.2288 5.4889 -2.5830
v  3.2288 5.8118 3.5516
v  3.2288 5.8118 3.2288
v  3.2288 5.8118 -2.2601
v  3.2288 5.8118 -2.5830
v  3.2288 6.1346 3.2288
v  3.2288 6.1346 -2.2601
v  3.2288 7.4261 3.2288
v  3.2288 7.4261 0.6458
v  3.2288 7.7490 0.6458
v  3.2288 8.0719 3.2288
v  3.2288 7.7490 0.3229
v  3.2288 8.0719 0.9686
v  3.2288 8.0719 0.3229
v  3.5516 0.3229 3.2288
v  3.5516 0.3229 2.5830
v  3.5516 0.6458 2.9059
v  3.5516 0.3229 -2.2601
v  3.5516 0.6458 2.5830
v  3.5516 0.6458 -1.9373
v  3.5516 2.9059 3.2288
v  3.5516 2.9059 2.9059
v  3.5516 2.9059 -1.9373
v  3.5516 2.9059 -2.2601
v  3.5516 5.4889 3.2288
v  3.5516 5.4889 2.9059
v  3.5516 5.4889 -1.9373
v  3.5516 5.4889 -2.2601
v  3.5516 5.8118 3.2288
v  3.5516 5.8118 -2.2601
v  3.8745 0.6458 2.9059
v  3.8745 0.6458 -1.9373
v  3.8745 2.9059 2.9059
v  3.8745 2.9059 -1.9373
v  3.8745 5.4889 2.9059
v  3.8745 5.4889 -1.9373
v  4.1974 8.0719 3.5516
v  4.1974 8.0719 0.9686
v  4.1974 8.3948 0.9686
v  4.1974 8.7176 3.5516
v  4.1974 8.3948 0.6458
v  4.1974 8.7176 0.6458
v  2.9059 0.0000 3.2288
v  2.9059 0.3229 3.2288
v  -2.5830 0.0000 -2.2601
v  -1.9373 0.0000 -2.2601
v  -1.9373 0.3229 -2.2601
v  2.9059 0.0000 2.9059
v  2.9059 0.0000 2.5830
v  -2.5830 0.0000 0.9686
v  -2.5830 0.0000 0.6458
v  2.9059 0.0000 0.6458
v  -2.5830 0.0000 -1.2915
v  2.9059 0.0000 -1.2915
v  -1.9373 0.0000 -1.9373
v  2.9059 0.0000 -1.9373
# 273 vertices

vn -1.0000 0.0000 -0.0000
vn 1.0000 0.0000 -0.0000
vn 0.0000 0.0000 1.0000
vn 0.0000 0.0000 -1.0000
vn 0.0000 -1.0000 -0.0000
vn 0.0000 1.0000 -0.0000
# 6 vertex normals

vt 0.1387 0.5000 0.0000
vt 0.0879 0.5000 0.0000
vt 0.8418 0.5000 0.0000
vt 0.0215 0.5000 0.0000
vt 0.8887 0.5000 0.0000
vt 0.7129 0.5000 0.0000
vt 0.8730 0.5000 0.0000
# 7 texture coords

o wumpa
g wumpa
usemtl palette
s 1
f 1/1/1 2/1/1 3/1/1 
f 4/1/1 2/1/1 1/1/1 
f 5/2/1 4/2/1 1/2/1 
f 6/2/1 4/2/1 5/2/1 
f 7/1/1 8/1/1 9/1/1 
f 7/3/1 10/3/1 8/3/1 
f 11/1/1 12/1/1 10/1/1 
f 11/3/1 10/3/1 7/3/1 
f 13/1/1 12/1/1 11/1/1 
f 14/1/1 7/1/1 9/1/1 
f 15/1/1 7/1/1 14/1/1 
f 16/2/1 15/2/1 14/2/1 
f 17/1/1 12/1/1 13/1/1 
f 18/1/1 12/1/1 17/1/1 
f 19/2/1 16/2/1 14/2/1 
f 20/2/1 16/2/1 19/2/1 
f 21/2/1 18/2/1 17/2/1 
f 22/2/1 18/2/1 21/2/1 
f 23/4/1 20/4/1 19/4/1 
f 23/4/1 21/4/1 20/4/1 
f 23/4/1 22/4/1 21/4/1 
f 24/4/1 22/4/1 23/4/1 
f 25/5/1 26/5/1 27/5/1 
f 28/5/1 26/5/1 25/5/1 
f 29/1/1 30/1/1 31/1/1 
f 29/3/1 32/3/1 30/3/1 
f 33/1/1 34/1/1 32/1/1 
f 33/3/1 32/3/1 29/3/1 
f 35/1/1 36/1/1 37/1/1 
f 38/3/1 31/3/1 36/3/1 
f 38/1/1 36/1/1 35/1/1 
f 39/1/1 29/1/1 31/1/1 
f 39/3/1 31/3/1 38/3/1 
f 39/1/1 33/1/1 29/1/1 
f 40/1/1 34/1/1 33/1/1 
f 40/1/1 33/1/1 39/1/1 
f 41/4/1 42/4/1 43/4/1 
f 44/4/1 42/4/1 41/4/1 
f 45/1/1 46/1/1 47/1/1 
f 48/1/1 46/1/1 45/1/1 
f 49/1/1 50/1/1 51/1/1 
f 52/1/1 50/1/1 49/1/1 
f 53/2/1 48/2/1 45/2/1 
f 54/2/1 48/2/1 53/2/1 
f 55/2/1 52/2/1 49/2/1 
f 56/2/1 52/2/1 55/2/1 
f 57/4/1 54/4/1 53/4/1 
f 58/4/1 54/4/1 57/4/1 
f 59/4/1 56/4/1 55/4/1 
f 60/4/1 56/4/1 59/4/1 
f 61/4/1 62/4/1 58/4/1 
f 63/4/1 62/4/1 61/4/1 
f 64/4/1 59/4/1 65/4/1 
f 66/4/1 59/4/1 64/4/1 
f 67/6/1 64/6/1 63/6/1 
f 68/6/1 64/6/1 67/6/1 
f 69/5/1 70/5/1 71/5/1 
f 72/5/1 70/5/1 69/5/1 
f 73/5/1 70/5/1 72/5/1 
f 74/1/1 75/1/1 76/1/1 
f 77/1/1 75/1/1 74/1/1 
f 78/1/1 79/1/1 80/1/1 
f 81/1/1 79/1/1 78/1/1 
f 82/2/1 77/2/1 74/2/1 
f 83/2/1 77/2/1 82/2/1 
f 84/2/1 81/2/1 78/2/1 
f 85/2/1 81/2/1 84/2/1 
f 86/4/1 83/4/1 82/4/1 
f 87/4/1 83/4/1 86/4/1 
f 88/4/1 85/4/1 84/4/1 
f 89/4/1 85/4/1 88/4/1 
f 90/4/1 91/4/1 87/4/1 
f 92/4/1 91/4/1 90/4/1 
f 93/4/1 88/4/1 94/4/1 
f 95/4/1 88/4/1 93/4/1 
f 96/6/1 97/6/1 92/6/1 
f 98/6/1 97/6/1 96/6/1 
f 99/6/1 93/6/1 100/6/1 
f 101/6/1 93/6/1 99/6/1 
f 102/1/1 103/1/1 104/1/1 
f 105/1/1 103/1/1 102/1/1 
f 106/1/1 107/1/1 108/1/1 
f 109/1/1 107/1/1 106/1/1 
f 110/2/1 109/2/1 106/2/1 
f 111/2/1 105/2/1 102/2/1 
f 112/2/1 105/2/1 111/2/1 
f 113/2/1 109/2/1 110/2/1 
f 114/2/1 109/2/1 113/2/1 
f 115/7/1 116/7/1 117/7/1 
f 118/7/1 116/7/1 115/7/1 
f 119/5/1 115/5/1 120/5/1 
f 121/5/1 115/5/1 119/5/1 
f 122/7/1 123/7/1 121/7/1 
f 124/7/1 123/7/1 122/7/1 
f 125/5/1 126/5/1 127/5/1 
f 125/5/1 128/5/1 126/5/1 
f 129/5/1 128/5/1 125/5/1 
f 130/5/2 131/5/2 132/5/2 
f 132/5/2 131/5/2 133/5/2 
f 134/5/2 135/5/2 136/5/2 
f 136/5/2 135/5/2 137/5/2 
f 138/5/2 139/5/2 140/5/2 
f 139/5/2 141/5/2 140/5/2 
f 138/5/2 140/5/2 142/5/2 
f 140/5/2 143/5/2 142/5/2 
f 142/5/2 143/5/2 144/5/2 
f 118/5/2 145/5/2 146/5/2 
f 118/5/2 146/5/2 123/5/2 
f 146/5/2 147/5/2 123/5/2 
f 123/5/2 147/5/2 148/5/2 
f 149/5/2 150/5/2 151/5/2 
f 151/5/2 150/5/2 152/5/2 
f 153/7/2 154/7/2 155/7/2 
f 155/7/2 154/7/2 156/7/2 
f 156/7/2 154/7/2 157/7/2 
f 157/7/2 154/7/2 158/7/2 
f 159/5/2 160/5/2 161/5/2 
f 161/5/2 160/5/2 162/5/2 
f 163/1/2 164/1/2 165/1/2 
f 165/1/2 164/1/2 166/1/2 
f 167/1/2 168/1/2 169/1/2 
f 169/1/2 168/1/2 170/1/2 
f 165/2/2 166/2/2 171/2/2 
f 171/2/2 166/2/2 172/2/2 
f 169/2/2 170/2/2 173/2/2 
f 173/2/2 170/2/2 174/2/2 
f 175/1/2 176/1/2 177/1/2 
f 177/1/2 176/1/2 178/1/2 
f 179/1/2 180/1/2 181/1/2 
f 181/1/2 180/1/2 182/1/2 
f 177/2/2 178/2/2 183/2/2 
f 183/2/2 178/2/2 184/2/2 
f 181/2/2 182/2/2 185/2/2 
f 185/2/2 182/2/2 186/2/2 
f 183/4/2 184/4/2 187/4/2 
f 187/4/2 184/4/2 188/4/2 
f 185/4/2 186/4/2 189/4/2 
f 189/4/2 186/4/2 190/4/2 
f 188/4/2 191/4/2 192/4/2 
f 192/4/2 191/4/2 193/4/2 
f 194/4/2 189/4/2 195/4/2 
f 195/4/2 189/4/2 196/4/2 
f 193/6/2 195/6/2 197/6/2 
f 197/6/2 195/6/2 198/6/2 
f 199/3/2 200/3/2 201/3/2 
f 200/1/2 202/1/2 203/1/2 
f 201/3/2 200/3/2 203/3/2 
f 202/3/2 204/3/2 205/3/2 
f 203/1/2 202/1/2 205/1/2 
f 204/1/2 206/1/2 207/1/2 
f 205/3/2 204/3/2 207/3/2 
f 207/1/2 206/1/2 208/1/2 
f 209/1/2 201/1/2 210/1/2 
f 210/1/2 201/1/2 211/1/2 
f 208/1/2 212/1/2 213/1/2 
f 213/1/2 212/1/2 214/1/2 
f 210/2/2 211/2/2 215/2/2 
f 215/2/2 211/2/2 216/2/2 
f 213/2/2 214/2/2 217/2/2 
f 217/2/2 214/2/2 218/2/2 
f 215/4/2 216/4/2 219/4/2 
f 219/4/2 216/4/2 220/4/2 
f 217/4/2 218/4/2 221/4/2 
f 221/4/2 218/4/2 222/4/2 
f 220/4/2 221/4/2 223/4/2 
f 223/4/2 221/4/2 224/4/2 
f 225/5/2 226/5/2 227/5/2 
f 225/5/2 227/5/2 228/5/2 
f 227/5/2 229/5/2 228/5/2 
f 228/5/2 229/5/2 230/5/2 
f 230/5/2 229/5/2 231/5/2 
f 232/3/2 233/3/2 234/3/2 
f 233/1/2 235/1/2 236/1/2 
f 234/3/2 233/3/2 236/3/2 
f 236/1/2 235/1/2 237/1/2 
f 232/3/2 234/3/2 238/3/2 
f 238/3/2 234/3/2 239/3/2 
f 237/1/2 235/1/2 240/1/2 
f 240/1/2 235/1/2 241/1/2 
f 238/2/2 239/2/2 242/2/2 
f 242/2/2 239/2/2 243/2/2 
f 240/2/2 241/2/2 244/2/2 
f 244/2/2 241/2/2 245/2/2 
f 242/4/2 243/4/2 246/4/2 
f 243/4/2 244/4/2 246/4/2 
f 244/4/2 245/4/2 246/4/2 
f 246/4/2 245/4/2 247/4/2 
f 248/1/2 249/1/2 250/1/2 
f 250/1/2 249/1/2 251/1/2 
f 250/2/2 251/2/2 252/2/2 
f 252/2/2 251/2/2 253/2/2 
f 254/5/2 255/5/2 256/5/2 
f 254/5/2 256/5/2 257/5/2 
f 256/5/2 258/5/2 257/5/2 
f 257/5/2 258/5/2 259/5/2 
f 163/1/3 102/1/3 104/1/3 
f 165/2/3 111/2/3 102/2/3 
f 165/1/3 102/1/3 163/1/3 
f 171/2/3 111/2/3 165/2/3 
f 103/1/3 74/1/3 76/1/3 
f 105/2/3 82/2/3 74/2/3 
f 105/1/3 74/1/3 103/1/3 
f 112/4/3 86/4/3 82/4/3 
f 112/2/3 82/2/3 105/2/3 
f 164/1/3 103/1/3 76/1/3 
f 172/4/3 86/4/3 112/4/3 
f 175/1/3 166/1/3 164/1/3 
f 175/1/3 164/1/3 76/1/3 
f 177/2/3 172/2/3 166/2/3 
f 177/1/3 166/1/3 175/1/3 
f 183/4/3 86/4/3 172/4/3 
f 183/2/3 172/2/3 177/2/3 
f 187/4/3 86/4/3 183/4/3 
f 75/1/3 45/1/3 47/1/3 
f 77/2/3 53/2/3 45/2/3 
f 77/1/3 45/1/3 75/1/3 
f 83/4/3 57/4/3 53/4/3 
f 83/2/3 53/2/3 77/2/3 
f 87/4/3 57/4/3 83/4/3 
f 176/1/3 75/1/3 47/1/3 
f 188/4/3 90/4/3 87/4/3 
f 192/4/3 90/4/3 188/4/3 
f 209/1/3 176/1/3 47/1/3 
f 209/1/3 178/1/3 176/1/3 
f 210/2/3 184/2/3 178/2/3 
f 210/1/3 178/1/3 209/1/3 
f 215/4/3 188/4/3 184/4/3 
f 215/2/3 184/2/3 210/2/3 
f 219/4/3 188/4/3 215/4/3 
f 254/5/3 125/5/3 127/5/3 
f 257/5/3 125/5/3 254/5/3 
f 35/1/3 14/1/3 9/1/3 
f 46/1/3 35/1/3 37/1/3 
f 48/2/3 19/2/3 14/2/3 
f 48/1/3 35/1/3 46/1/3 
f 48/1/3 14/1/3 35/1/3 
f 54/4/3 23/4/3 19/4/3 
f 54/2/3 19/2/3 48/2/3 
f 58/4/3 23/4/3 54/4/3 
f 91/4/3 61/4/3 58/4/3 
f 92/4/3 61/4/3 91/4/3 
f 126/5/3 119/5/3 120/5/3 
f 260/1/3 46/1/3 37/1/3 
f 261/1/3 46/1/3 260/1/3 
f 193/6/3 96/6/3 92/6/3 
f 197/6/3 96/6/3 193/6/3 
f 199/3/3 261/3/3 260/3/3 
f 201/3/3 261/3/3 199/3/3 
f 220/4/3 193/4/3 191/4/3 
f 223/4/3 193/4/3 220/4/3 
f 225/5/3 126/5/3 120/5/3 
f 228/5/3 126/5/3 225/5/3 
f 232/3/3 211/3/3 201/3/3 
f 238/2/3 216/2/3 211/2/3 
f 238/3/3 211/3/3 232/3/3 
f 242/4/3 220/4/3 216/4/3 
f 242/2/3 216/2/3 238/2/3 
f 246/4/3 220/4/3 242/4/3 
f 7/1/3 1/1/3 3/1/3 
f 15/1/3 1/1/3 7/1/3 
f 16/2/3 5/2/3 1/2/3 
f 16/1/3 1/1/3 15/1/3 
f 20/2/3 5/2/3 16/2/3 
f 62/4/3 41/4/3 43/4/3 
f 63/4/3 41/4/3 62/4/3 
f 97/6/3 67/6/3 63/6/3 
f 98/6/3 67/6/3 97/6/3 
f 248/1/3 239/1/3 234/1/3 
f 250/2/3 243/2/3 239/2/3 
f 250/1/3 239/1/3 248/1/3 
f 252/2/3 243/2/3 250/2/3 
f 115/5/3 69/5/3 71/5/3 
f 121/5/3 69/5/3 115/5/3 
f 150/7/3 115/7/3 117/7/3 
f 153/7/3 150/7/3 117/7/3 
f 153/7/3 152/7/3 150/7/3 
f 155/7/3 152/7/3 153/7/3 
f 156/7/3 122/7/3 121/7/3 
f 157/7/3 122/7/3 156/7/3 
f 72/5/3 25/5/3 27/5/3 
f 138/5/3 25/5/3 72/5/3 
f 142/5/3 25/5/3 138/5/3 
f 159/5/4 161/5/4 230/5/4 
f 230/5/4 161/5/4 255/5/4 
f 255/5/4 161/5/4 256/5/4 
f 128/5/4 129/5/4 160/5/4 
f 160/5/4 129/5/4 162/5/4 
f 149/5/4 151/5/4 226/5/4 
f 226/5/4 151/5/4 227/5/4 
f 162/5/4 129/5/4 258/5/4 
f 258/5/4 129/5/4 259/5/4 
f 155/5/4 156/5/4 229/5/4 
f 229/5/4 156/5/4 231/5/4 
f 116/7/4 118/7/4 154/7/4 
f 123/7/4 124/7/4 154/7/4 
f 118/7/4 123/7/4 154/7/4 
f 154/7/4 124/7/4 158/7/4 
f 2/1/4 4/1/4 13/1/4 
f 4/2/4 6/2/4 17/2/4 
f 13/1/4 4/1/4 17/1/4 
f 17/2/4 6/2/4 21/2/4 
f 42/4/4 44/4/4 65/4/4 
f 65/4/4 44/4/4 64/4/4 
f 64/6/4 68/6/4 100/6/4 
f 100/6/4 68/6/4 99/6/4 
f 237/1/4 240/1/4 249/1/4 
f 240/2/4 244/2/4 251/2/4 
f 249/1/4 240/1/4 251/1/4 
f 251/2/4 244/2/4 253/2/4 
f 12/1/4 18/1/4 40/1/4 
f 34/1/4 40/1/4 262/1/4 
f 262/1/4 40/1/4 51/1/4 
f 18/2/4 22/2/4 49/2/4 
f 51/1/4 40/1/4 49/1/4 
f 40/1/4 18/1/4 49/1/4 
f 22/4/4 24/4/4 55/4/4 
f 49/2/4 22/2/4 55/2/4 
f 55/4/4 24/4/4 59/4/4 
f 59/4/4 66/4/4 94/4/4 
f 94/4/4 66/4/4 93/4/4 
f 262/3/4 51/3/4 263/3/4 
f 263/3/4 51/3/4 264/3/4 
f 134/5/4 136/5/4 145/5/4 
f 145/5/4 136/5/4 146/5/4 
f 93/6/4 101/6/4 195/6/4 
f 195/6/4 101/6/4 198/6/4 
f 263/1/4 264/1/4 206/1/4 
f 206/1/4 264/1/4 208/1/4 
f 194/4/4 195/4/4 221/4/4 
f 221/4/4 195/4/4 224/4/4 
f 208/1/4 213/1/4 235/1/4 
f 213/2/4 217/2/4 241/2/4 
f 235/1/4 213/1/4 241/1/4 
f 217/4/4 221/4/4 245/4/4 
f 241/2/4 217/2/4 245/2/4 
f 245/4/4 221/4/4 247/4/4 
f 50/1/4 52/1/4 80/1/4 
f 52/2/4 56/2/4 78/2/4 
f 80/1/4 52/1/4 78/1/4 
f 56/4/4 60/4/4 84/4/4 
f 78/2/4 56/2/4 84/2/4 
f 84/4/4 60/4/4 88/4/4 
f 70/5/4 73/5/4 135/5/4 
f 135/5/4 73/5/4 137/5/4 
f 137/5/4 73/5/4 139/5/4 
f 137/5/4 139/5/4 147/5/4 
f 147/5/4 139/5/4 148/5/4 
f 50/1/4 80/1/4 179/1/4 
f 88/4/4 95/4/4 189/4/4 
f 189/4/4 95/4/4 196/4/4 
f 50/1/4 179/1/4 212/1/4 
f 179/1/4 181/1/4 212/1/4 
f 181/2/4 185/2/4 214/2/4 
f 212/1/4 181/1/4 214/1/4 
f 185/4/4 189/4/4 218/4/4 
f 214/2/4 185/2/4 218/2/4 
f 218/4/4 189/4/4 222/4/4 
f 79/1/4 81/1/4 108/1/4 
f 108/1/4 81/1/4 106/1/4 
f 81/2/4 85/2/4 110/2/4 
f 106/1/4 81/1/4 110/1/4 
f 85/4/4 89/4/4 113/4/4 
f 110/2/4 85/2/4 113/2/4 
f 79/1/4 108/1/4 167/1/4 
f 113/4/4 89/4/4 173/4/4 
f 167/1/4 169/1/4 180/1/4 
f 79/1/4 167/1/4 180/1/4 
f 169/2/4 173/2/4 182/2/4 
f 180/1/4 169/1/4 182/1/4 
f 173/4/4 89/4/4 186/4/4 
f 182/2/4 173/2/4 186/2/4 
f 186/4/4 89/4/4 190/4/4 
f 130/5/4 132/5/4 141/5/4 
f 141/5/4 132/5/4 140/5/4 
f 107/1/4 109/1/4 168/1/4 
f 109/2/4 114/2/4 170/2/4 
f 168/1/4 109/1/4 170/1/4 
f 170/2/4 114/2/4 174/2/4 
f 26/5/4 28/5/4 131/5/4 
f 131/5/4 28/5/4 133/5/4 
f 133/5/4 28/5/4 143/5/4 
f 143/5/4 28/5/4 144/5/4 
f 36/1/5 260/1/5 37/1/5 
f 265/3/5 199/3/5 260/3/5 
f 265/1/5 260/1/5 36/1/5 
f 266/3/5 265/3/5 36/3/5 
f 266/3/5 199/3/5 265/3/5 
f 200/3/5 199/3/5 266/3/5 
f 31/3/5 266/3/5 36/3/5 
f 267/3/5 266/3/5 31/3/5 
f 30/1/5 267/1/5 31/1/5 
f 268/3/5 266/3/5 267/3/5 
f 268/1/5 267/1/5 30/1/5 
f 269/1/5 200/1/5 266/1/5 
f 269/3/5 266/3/5 268/3/5 
f 202/1/5 200/1/5 269/1/5 
f 32/3/5 268/3/5 30/3/5 
f 32/3/5 269/3/5 268/3/5 
f 32/3/5 202/3/5 269/3/5 
f 270/3/5 202/3/5 32/3/5 
f 271/3/5 202/3/5 270/3/5 
f 204/3/5 202/3/5 271/3/5 
f 272/3/5 271/3/5 270/3/5 
f 273/1/5 204/1/5 271/1/5 
f 273/3/5 271/3/5 272/3/5 
f 34/1/5 270/1/5 32/1/5 
f 262/3/5 272/3/5 270/3/5 
f 262/1/5 270/1/5 34/1/5 
f 263/1/5 273/1/5 272/1/5 
f 263/3/5 272/3/5 262/3/5 
f 206/1/5 204/1/5 273/1/5 
f 206/1/5 273/1/5 263/1/5 
f 46/1/5 209/1/5 47/1/5 
f 261/1/5 209/1/5 46/1/5 
f 201/1/5 209/1/5 261/1/5 
f 203/3/5 232/3/5 201/3/5 
f 233/3/5 232/3/5 203/3/5 
f 205/1/5 233/1/5 203/1/5 
f 207/1/5 233/1/5 205/1/5 
f 208/1/5 233/1/5 207/1/5 
f 235/1/5 233/1/5 208/1/5 
f 50/1/5 264/1/5 51/1/5 
f 50/1/5 208/1/5 264/1/5 
f 212/1/5 208/1/5 50/1/5 
f 75/1/5 175/1/5 76/1/5 
f 176/1/5 175/1/5 75/1/5 
f 8/1/5 35/1/5 9/1/5 
f 38/1/5 35/1/5 8/1/5 
f 236/1/5 248/1/5 234/1/5 
f 10/3/5 38/3/5 8/3/5 
f 39/3/5 38/3/5 10/3/5 
f 237/1/5 248/1/5 236/1/5 
f 249/1/5 248/1/5 237/1/5 
f 12/1/5 39/1/5 10/1/5 
f 40/1/5 39/1/5 12/1/5 
f 79/1/5 179/1/5 80/1/5 
f 180/1/5 179/1/5 79/1/5 
f 103/1/5 163/1/5 104/1/5 
f 164/1/5 163/1/5 103/1/5 
f 11/1/5 7/1/5 3/1/5 
f 2/1/5 11/1/5 3/1/5 
f 13/1/5 11/1/5 2/1/5 
f 107/1/5 167/1/5 108/1/5 
f 168/1/5 167/1/5 107/1/5 
f 149/5/5 225/5/5 120/5/5 
f 226/5/5 225/5/5 149/5/5 
f 115/5/5 149/5/5 120/5/5 
f 150/5/5 149/5/5 115/5/5 
f 118/5/5 115/5/5 71/5/5 
f 134/5/5 118/5/5 71/5/5 
f 145/5/5 118/5/5 134/5/5 
f 70/5/5 134/5/5 71/5/5 
f 135/5/5 134/5/5 70/5/5 
f 152/5/5 227/5/5 151/5/5 
f 155/5/5 227/5/5 152/5/5 
f 229/5/5 227/5/5 155/5/5 
f 137/5/5 146/5/5 136/5/5 
f 147/5/5 146/5/5 137/5/5 
f 126/5/5 254/5/5 127/5/5 
f 228/5/5 254/5/5 126/5/5 
f 230/5/5 254/5/5 228/5/5 
f 255/5/5 254/5/5 230/5/5 
f 73/5/5 72/5/5 27/5/5 
f 130/5/5 73/5/5 27/5/5 
f 130/5/5 139/5/5 73/5/5 
f 141/5/5 139/5/5 130/5/5 
f 26/5/5 130/5/5 27/5/5 
f 131/5/5 130/5/5 26/5/5 
f 162/5/5 256/5/5 161/5/5 
f 258/5/5 256/5/5 162/5/5 
f 133/5/5 140/5/5 132/5/5 
f 143/5/5 140/5/5 133/5/5 
f 111/2/6 171/2/6 112/2/6 
f 112/2/6 171/2/6 172/2/6 
f 5/2/6 20/2/6 6/2/6 
f 6/2/6 20/2/6 21/2/6 
f 243/2/6 252/2/6 244/2/6 
f 244/2/6 252/2/6 253/2/6 
f 113/2/6 173/2/6 114/2/6 
f 114/2/6 173/2/6 174/2/6 
f 86/4/6 187/4/6 87/4/6 
f 87/4/6 187/4/6 188/4/6 
f 57/4/6 87/4/6 58/4/6 
f 58/4/6 87/4/6 91/4/6 
f 188/4/6 219/4/6 191/4/6 
f 191/4/6 219/4/6 220/4/6 
f 23/4/6 58/4/6 43/4/6 
f 43/4/6 58/4/6 62/4/6 
f 23/4/6 43/4/6 42/4/6 
f 23/4/6 42/4/6 24/4/6 
f 42/4/6 65/4/6 24/4/6 
f 24/4/6 65/4/6 59/4/6 
f 220/4/6 246/4/6 221/4/6 
f 221/4/6 246/4/6 247/4/6 
f 59/4/6 94/4/6 60/4/6 
f 60/4/6 94/4/6 88/4/6 
f 194/4/6 221/4/6 189/4/6 
f 189/4/6 221/4/6 222/4/6 
f 88/4/6 189/4/6 89/4/6 
f 89/4/6 189/4/6 190/4/6 
f 90/4/6 192/4/6 92/4/6 
f 92/4/6 192/4/6 193/4/6 
f 61/4/6 92/4/6 63/4/6 
f 63/4/6 92/4/6 97/4/6 
f 41/4/6 63/4/6 44/4/6 
f 44/4/6 63/4/6 64/4/6 
f 64/4/6 100/4/6 66/4/6 
f 66/4/6 100/4/6 93/4/6 
f 193/4/6 223/4/6 195/4/6 
f 195/4/6 223/4/6 224/4/6 
f 93/4/6 195/4/6 95/4/6 
f 95/4/6 195/4/6 196/4/6 
f 96/6/6 197/6/6 98/6/6 
f 98/6/6 197/6/6 117/6/6 
f 67/6/6 98/6/6 117/6/6 
f 117/6/6 197/6/6 153/6/6 
f 67/6/6 117/6/6 116/6/6 
f 153/6/6 197/6/6 154/6/6 
f 67/6/6 116/6/6 68/6/6 
f 116/6/6 154/6/6 68/6/6 
f 68/6/6 154/6/6 99/6/6 
f 99/6/6 154/6/6 101/6/6 
f 154/6/6 197/6/6 198/6/6 
f 101/6/6 154/6/6 198/6/6 
f 119/5/6 126/5/6 128/5/6 
f 159/5/6 230/5/6 160/5/6 
f 119/5/6 128/5/6 121/5/6 
f 128/5/6 160/5/6 121/5/6 
f 121/5/6 160/5/6 156/5/6 
f 160/5/6 230/5/6 231/5/6 
f 156/5/6 160/5/6 231/5/6 
f 69/5/6 121/5/6 123/5/6 
f 69/5/6 123/5/6 72/5/6 
f 72/5/6 123/5/6 138/5/6 
f 138/5/6 123/5/6 139/5/6 
f 139/5/6 123/5/6 148/5/6 
f 125/5/6 257/5/6 129/5/6 
f 129/5/6 257/5/6 259/5/6 
f 122/7/6 157/7/6 124/7/6 
f 124/7/6 157/7/6 158/7/6 
f 25/5/6 142/5/6 28/5/6 
f 28/5/6 142/5/6 144/5/6 
# 542 faces

