# 3ds Max Wavefront OBJ Exporter v0.99 - (c)2007 guruware
# File Created: 11.04.2022 17:02:35

mtllib aleta_i.mtl

#
# object aleta2
#

v  -6.8100 5.9067 -1.1046
v  -6.8100 4.5977 -1.9948
v  -6.8100 4.5977 -1.1046
v  -6.8100 5.9067 -1.9948
v  -6.1555 4.5977 -1.1046
v  -6.1555 3.9432 -1.1046
v  -6.1555 3.9432 -0.2144
v  -6.1555 5.9067 -1.1046
v  -6.1555 6.5612 -0.2144
v  -6.1555 6.5612 -1.1046
v  -5.5010 6.5612 0.6758
v  -5.5010 3.9432 -0.2144
v  -5.5010 3.9432 0.6758
v  -5.5010 6.5612 -0.2144
v  -4.8465 6.5612 1.5660
v  -4.8465 3.9432 0.6758
v  -4.8465 3.9432 1.5660
v  -4.8465 6.5612 0.6758
v  -5.5010 4.5977 -1.1046
v  -5.5010 4.5977 -1.9948
v  -5.5010 5.9067 -1.1046
v  -5.5010 5.9067 -1.9948
v  -4.8465 3.9432 -0.2144
v  -4.8465 3.9432 -1.1046
v  -4.8465 6.5612 -0.2144
v  -4.8465 6.5612 -1.1046
v  -4.1920 3.9432 0.6758
v  -4.1920 3.9432 -0.2144
v  -4.1920 6.5612 0.6758
v  -4.1920 6.5612 -0.2144
v  -3.5375 3.9432 1.5129
v  -4.8465 6.5612 1.5129
v  -4.8465 3.9432 1.5129
v  -3.5375 5.2522 1.5129
v  -3.5375 5.9067 1.5129
v  -3.5375 6.5612 1.5129
v  -4.1920 3.9432 0.6227
v  -4.1920 6.5612 0.6227
v  -3.5375 3.9432 0.6227
v  -3.5375 5.2522 0.6227
v  -3.5375 5.9067 0.6227
v  -3.5375 6.5612 0.6227
v  -3.5375 6.5612 1.5660
v  -3.5375 6.5612 0.6758
# 44 vertices

vn -1.0000 0.0000 -0.0000
vn 1.0000 0.0000 -0.0000
vn 0.0000 0.0000 1.0000
vn 0.0000 0.0000 -1.0000
vn 0.0000 -1.0000 0.0000
vn 0.0000 -1.0000 -0.0000
vn 0.0000 1.0000 -0.0000
# 7 vertex normals

vt 0.0879 0.5000 0.0000
# 1 texture coords

o aleta2
g aleta2
usemtl palette
s 1
f 1/1/1 2/1/1 3/1/1 
f 4/1/1 2/1/1 1/1/1 
f 5/1/1 6/1/1 7/1/1 
f 8/1/1 5/1/1 7/1/1 
f 9/1/1 8/1/1 7/1/1 
f 10/1/1 8/1/1 9/1/1 
f 11/1/1 12/1/1 13/1/1 
f 14/1/1 12/1/1 11/1/1 
f 15/1/1 16/1/1 17/1/1 
f 18/1/1 16/1/1 15/1/1 
f 19/1/2 20/1/2 21/1/2 
f 21/1/2 20/1/2 22/1/2 
f 23/1/2 24/1/2 25/1/2 
f 25/1/2 24/1/2 26/1/2 
f 27/1/2 28/1/2 29/1/2 
f 29/1/2 28/1/2 30/1/2 
f 31/1/3 32/1/3 33/1/3 
f 34/1/3 32/1/3 31/1/3 
f 35/1/3 32/1/3 34/1/3 
f 36/1/3 32/1/3 35/1/3 
f 16/1/3 11/1/3 13/1/3 
f 18/1/3 11/1/3 16/1/3 
f 12/1/3 9/1/3 7/1/3 
f 14/1/3 9/1/3 12/1/3 
f 5/1/3 1/1/3 3/1/3 
f 8/1/3 1/1/3 5/1/3 
f 37/1/4 38/1/4 39/1/4 
f 39/1/4 38/1/4 40/1/4 
f 40/1/4 38/1/4 41/1/4 
f 41/1/4 38/1/4 42/1/4 
f 23/1/4 25/1/4 28/1/4 
f 28/1/4 25/1/4 30/1/4 
f 6/1/4 5/1/4 19/1/4 
f 8/1/4 10/1/4 21/1/4 
f 6/1/4 19/1/4 24/1/4 
f 19/1/4 21/1/4 24/1/4 
f 21/1/4 10/1/4 26/1/4 
f 24/1/4 21/1/4 26/1/4 
f 2/1/4 4/1/4 20/1/4 
f 20/1/4 4/1/4 22/1/4 
f 16/1/5 31/1/5 33/1/5 
f 27/1/5 31/1/5 16/1/5 
f 39/1/6 31/1/5 27/1/5 
f 12/1/6 16/1/5 13/1/6 
f 12/1/6 27/1/5 16/1/5 
f 23/1/6 27/1/5 12/1/6 
f 28/1/6 27/1/5 23/1/6 
f 6/1/6 23/1/6 12/1/6 
f 6/1/6 12/1/6 7/1/6 
f 24/1/6 23/1/6 6/1/6 
f 2/1/6 5/1/6 3/1/6 
f 2/1/6 19/1/6 5/1/6 
f 20/1/6 19/1/6 2/1/6 
f 1/1/7 8/1/7 4/1/7 
f 8/1/7 21/1/7 4/1/7 
f 4/1/7 21/1/7 22/1/7 
f 15/1/7 43/1/7 18/1/7 
f 18/1/7 43/1/7 29/1/7 
f 29/1/7 43/1/7 44/1/7 
f 18/1/7 29/1/7 14/1/7 
f 11/1/7 18/1/7 14/1/7 
f 14/1/7 29/1/7 25/1/7 
f 25/1/7 29/1/7 30/1/7 
f 14/1/7 25/1/7 10/1/7 
f 9/1/7 14/1/7 10/1/7 
f 10/1/7 25/1/7 26/1/7 
# 66 faces

