# 3ds Max Wavefront OBJ Exporter v0.99 - (c)2007 guruware
# File Created: 11.04.2022 17:02:50

mtllib aleta_d.mtl

#
# object aleta1
#

v  4.2907 6.5612 0.6227
v  4.2907 3.9432 -0.2675
v  4.2907 3.9432 0.6227
v  4.2907 6.5612 -0.2675
v  4.9452 6.5612 -0.2675
v  4.9452 3.9432 -1.1576
v  4.9452 3.9432 -0.2675
v  4.9452 6.5612 -1.1576
v  5.5997 5.9067 -1.1576
v  5.5997 4.5977 -2.0478
v  5.5997 4.5977 -1.1576
v  5.5997 5.9067 -2.0478
v  4.9452 3.9432 1.5129
v  4.9452 3.9432 0.6227
v  4.9452 6.5612 1.5129
v  4.9452 6.5612 0.6227
v  5.5997 3.9432 0.6227
v  5.5997 3.9432 -0.2675
v  5.5997 6.5612 0.6227
v  5.5997 6.5612 -0.2675
v  6.2542 3.9432 -0.2675
v  6.2542 3.9432 -1.1576
v  6.2542 4.5977 -1.1576
v  6.2542 5.9067 -1.1576
v  6.2542 6.5612 -0.2675
v  6.2542 6.5612 -1.1576
v  6.9087 4.5977 -1.1576
v  6.9087 4.5977 -2.0478
v  6.9087 5.9067 -1.1576
v  6.9087 5.9067 -2.0478
v  3.6362 5.2522 1.5129
v  3.6362 3.9432 1.5129
v  3.6362 6.5612 1.5129
v  3.6362 5.9067 1.5129
v  3.6362 3.9432 0.6227
v  3.6362 5.2522 0.6227
v  3.6362 5.9067 0.6227
v  3.6362 6.5612 0.6227
# 38 vertices

vn -1.0000 0.0000 -0.0000
vn 1.0000 0.0000 -0.0000
vn 0.0000 0.0000 1.0000
vn 0.0000 0.0000 -1.0000
vn 0.0000 -1.0000 -0.0000
vn 0.0000 1.0000 -0.0000
# 6 vertex normals

vt 0.0879 0.5000 0.0000
# 1 texture coords

o aleta1
g aleta1
usemtl palette
s 1
f 1/1/1 2/1/1 3/1/1 
f 4/1/1 2/1/1 1/1/1 
f 5/1/1 6/1/1 7/1/1 
f 8/1/1 6/1/1 5/1/1 
f 9/1/1 10/1/1 11/1/1 
f 12/1/1 10/1/1 9/1/1 
f 13/1/2 14/1/2 15/1/2 
f 15/1/2 14/1/2 16/1/2 
f 17/1/2 18/1/2 19/1/2 
f 19/1/2 18/1/2 20/1/2 
f 21/1/2 22/1/2 23/1/2 
f 21/1/2 23/1/2 24/1/2 
f 21/1/2 24/1/2 25/1/2 
f 25/1/2 24/1/2 26/1/2 
f 27/1/2 28/1/2 29/1/2 
f 29/1/2 28/1/2 30/1/2 
f 13/1/3 31/1/3 32/1/3 
f 13/1/3 33/1/3 34/1/3 
f 13/1/3 34/1/3 31/1/3 
f 15/1/3 33/1/3 13/1/3 
f 17/1/3 16/1/3 14/1/3 
f 19/1/3 16/1/3 17/1/3 
f 21/1/3 20/1/3 18/1/3 
f 25/1/3 20/1/3 21/1/3 
f 27/1/3 24/1/3 23/1/3 
f 29/1/3 24/1/3 27/1/3 
f 35/1/4 36/1/4 3/1/4 
f 37/1/4 38/1/4 3/1/4 
f 36/1/4 37/1/4 3/1/4 
f 3/1/4 38/1/4 1/1/4 
f 2/1/4 4/1/4 7/1/4 
f 7/1/4 4/1/4 5/1/4 
f 6/1/4 8/1/4 11/1/4 
f 11/1/4 8/1/4 9/1/4 
f 6/1/4 11/1/4 22/1/4 
f 22/1/4 11/1/4 23/1/4 
f 9/1/4 8/1/4 24/1/4 
f 24/1/4 8/1/4 26/1/4 
f 10/1/4 12/1/4 28/1/4 
f 28/1/4 12/1/4 30/1/4 
f 35/1/5 13/1/5 32/1/5 
f 3/1/5 13/1/5 35/1/5 
f 14/1/5 13/1/5 3/1/5 
f 2/1/5 17/1/5 14/1/5 
f 2/1/5 14/1/5 3/1/5 
f 7/1/5 17/1/5 2/1/5 
f 18/1/5 17/1/5 7/1/5 
f 6/1/5 21/1/5 18/1/5 
f 6/1/5 18/1/5 7/1/5 
f 22/1/5 21/1/5 6/1/5 
f 10/1/5 27/1/5 23/1/5 
f 10/1/5 23/1/5 11/1/5 
f 28/1/5 27/1/5 10/1/5 
f 24/1/6 29/1/6 12/1/6 
f 9/1/6 24/1/6 12/1/6 
f 12/1/6 29/1/6 30/1/6 
f 33/1/6 15/1/6 38/1/6 
f 38/1/6 15/1/6 1/1/6 
f 1/1/6 15/1/6 16/1/6 
f 1/1/6 16/1/6 4/1/6 
f 16/1/6 19/1/6 4/1/6 
f 4/1/6 19/1/6 5/1/6 
f 5/1/6 19/1/6 20/1/6 
f 20/1/6 25/1/6 8/1/6 
f 5/1/6 20/1/6 8/1/6 
f 8/1/6 25/1/6 26/1/6 
# 66 faces

