# 3ds Max Wavefront OBJ Exporter v0.99 - (c)2007 guruware
# File Created: 27.03.2022 18:41:55

mtllib pulpo_alto.mtl

#
# object Box022
#

v  -2.5100 0.0249 2.8064
v  -2.5100 0.0249 -2.8064
v  3.1028 0.0249 -2.8064
v  3.1028 0.0249 2.8064
v  -2.5100 8.0594 2.8064
v  3.1028 8.0594 2.8064
v  3.1028 8.0594 -2.8064
v  -2.5100 8.0594 -2.8064
v  -3.3855 2.6256 1.6667
v  -3.3855 2.6256 1.0826
v  -2.8903 2.6256 1.0826
v  -2.8903 2.6256 1.6667
v  -2.3950 2.6256 1.0826
v  -2.3950 2.6256 1.6667
v  -3.3855 2.6256 0.4986
v  -2.8903 2.6256 0.4986
v  -2.3950 2.6256 0.4986
v  -3.3855 2.6256 -0.0855
v  -2.8903 2.6256 -0.0855
v  -2.3950 2.6256 -0.0855
v  -3.3855 2.6256 -0.6695
v  -2.8903 2.6256 -0.6695
v  -2.3950 2.6256 -0.6695
v  -3.3855 2.6256 -1.2536
v  -2.8903 2.6256 -1.2536
v  -2.3950 2.6256 -1.2536
v  -3.3855 6.8059 1.6667
v  -2.8903 6.8059 1.6667
v  -2.8903 6.8059 1.0826
v  -3.3855 6.8059 1.0826
v  -2.3950 6.8059 1.6667
v  -2.3950 6.8059 1.0826
v  -2.8903 6.8059 0.4986
v  -3.3855 6.8059 0.4986
v  -2.3950 6.8059 0.4986
v  -2.8903 6.8059 -0.0855
v  -3.3855 6.8059 -0.0855
v  -2.3950 6.8059 -0.0855
v  -2.8903 6.8059 -0.6695
v  -3.3855 6.8059 -0.6695
v  -2.3950 6.8059 -0.6695
v  -2.8903 6.8059 -1.2536
v  -3.3855 6.8059 -1.2536
v  -2.3950 6.8059 -1.2536
v  -2.8903 3.4617 1.6667
v  -3.3855 3.4617 1.6667
v  -2.3950 3.4617 1.6667
v  -2.8903 4.2977 1.6667
v  -3.3855 4.2977 1.6667
v  -2.3950 4.2977 1.6667
v  -2.8903 5.1338 1.6667
v  -3.3855 5.1338 1.6667
v  -2.3950 5.1338 1.6667
v  -2.8903 5.9698 1.6667
v  -3.3855 5.9698 1.6667
v  -2.3950 5.9698 1.6667
v  -2.3950 3.4617 1.0826
v  -2.3950 3.4617 0.4986
v  -2.3950 3.4617 -0.0855
v  -2.3950 3.4617 -0.6695
v  -2.3950 3.4617 -1.2536
v  -2.3950 4.2977 1.0826
v  -2.3950 4.2977 0.4986
v  -2.3950 4.2977 -0.0855
v  -2.3950 4.2977 -0.6695
v  -2.3950 4.2977 -1.2536
v  -2.3950 5.1338 1.0826
v  -2.3950 5.1338 0.4986
v  -2.3950 5.1338 -0.0855
v  -2.3950 5.1338 -0.6695
v  -2.3950 5.1338 -1.2536
v  -2.3950 5.9698 1.0826
v  -2.3950 5.9698 0.4986
v  -2.3950 5.9698 -0.0855
v  -2.3950 5.9698 -0.6695
v  -2.3950 5.9698 -1.2536
v  -2.8903 3.4617 -1.2536
v  -3.3855 3.4617 -1.2536
v  -2.8903 4.2977 -1.2536
v  -3.3855 4.2977 -1.2536
v  -2.8903 5.1338 -1.2536
v  -3.3855 5.1338 -1.2536
v  -2.8903 5.9698 -1.2536
v  -3.3855 5.9698 -1.2536
v  -3.3855 3.4617 -0.6695
v  -3.3855 3.4617 -0.0855
v  -3.3855 3.4617 0.4986
v  -3.3855 3.4617 1.0826
v  -3.3855 4.2977 -0.6695
v  -2.9432 3.0175 -0.6195
v  -2.9432 2.9799 1.0625
v  -3.3855 4.2977 1.0826
v  -3.3855 5.1338 -0.6695
v  -2.9432 5.2464 -0.6216
v  -2.9432 5.1338 1.1271
v  -3.3855 5.1338 1.0826
v  -3.3855 5.9698 -0.6695
v  -3.3855 5.9698 -0.0855
v  -3.3855 5.9698 0.4986
v  -3.3855 5.9698 1.0826
# 100 vertices

vn 0.0000 -1.0000 -0.0000
vn 0.0000 1.0000 -0.0000
vn 0.0000 0.0000 1.0000
vn 1.0000 0.0000 -0.0000
vn 0.0000 0.0000 -1.0000
vn -1.0000 0.0000 -0.0000
vn -0.8560 0.2522 0.4512
vn -0.4555 0.8902 0.0084
vn -0.4825 0.8543 -0.1936
vn -0.7449 0.0006 0.6672
vn -0.3985 0.7484 0.5302
vn -0.2764 0.7465 -0.6053
vn -0.7378 0.0767 -0.6707
vn -0.8155 -0.1951 0.5448
vn -0.6577 -0.4114 0.6311
vn -0.6867 -0.2316 -0.6890
vn -0.6758 0.0129 -0.7370
vn -0.9468 -0.3152 0.0648
vn -0.9438 -0.3304 -0.0082
vn -0.9809 -0.1624 -0.1068
# 20 vertex normals

vt 1.0000 0.0000 0.0000
vt 1.0000 1.0000 0.0000
vt 0.0000 1.0000 0.0000
vt 0.0000 0.0000 0.0000
vt 1.0000 0.2000 0.0000
vt 0.5000 0.2000 0.0000
vt 0.5000 0.0000 0.0000
vt 0.0000 0.2000 0.0000
vt 1.0000 0.4000 0.0000
vt 0.5000 0.4000 0.0000
vt 0.0000 0.4000 0.0000
vt 1.0000 0.6000 0.0000
vt 0.5000 0.6000 0.0000
vt 0.0000 0.6000 0.0000
vt 1.0000 0.8000 0.0000
vt 0.5000 0.8000 0.0000
vt 0.0000 0.8000 0.0000
vt 0.5000 1.0000 0.0000
vt 0.2000 0.0000 0.0000
vt 0.2000 0.2000 0.0000
vt 0.4000 0.0000 0.0000
vt 0.4000 0.2000 0.0000
vt 0.6000 0.0000 0.0000
vt 0.6000 0.2000 0.0000
vt 0.8000 0.0000 0.0000
vt 0.8000 0.2000 0.0000
vt 0.2000 0.4000 0.0000
vt 0.4000 0.4000 0.0000
vt 0.6000 0.4000 0.0000
vt 0.8000 0.4000 0.0000
vt 0.2000 0.6000 0.0000
vt 0.4000 0.6000 0.0000
vt 0.6000 0.6000 0.0000
vt 0.8000 0.6000 0.0000
vt 0.2000 0.8000 0.0000
vt 0.4000 0.8000 0.0000
vt 0.6000 0.8000 0.0000
vt 0.8000 0.8000 0.0000
vt 0.2000 1.0000 0.0000
vt 0.4000 1.0000 0.0000
vt 0.6000 1.0000 0.0000
vt 0.8000 1.0000 0.0000
# 42 texture coords

o Box022
g Box022
usemtl Wall_Paint
s 2
f 1/1/1 2/2/1 3/3/1 
f 3/3/1 4/4/1 1/1/1 
s 4
f 5/4/2 6/1/2 7/2/2 
f 7/2/2 8/3/2 5/4/2 
s 8
f 1/4/3 4/1/3 6/2/3 
f 6/2/3 5/3/3 1/4/3 
s 16
f 4/4/4 3/1/4 7/2/4 
f 7/2/4 6/3/4 4/4/4 
s 32
f 3/4/5 2/1/5 8/2/5 
f 8/2/5 7/3/5 3/4/5 
s 64
f 2/4/6 1/1/6 5/2/6 
f 5/2/6 8/3/6 2/4/6 
usemtl 15___Glossy_Plastic
s 2
f 9/1/1 10/5/1 11/6/1 
f 11/6/1 12/7/1 9/1/1 
f 12/7/1 11/6/1 13/8/1 
f 13/8/1 14/4/1 12/7/1 
f 10/5/1 15/9/1 16/10/1 
f 16/10/1 11/6/1 10/5/1 
f 11/6/1 16/10/1 17/11/1 
f 17/11/1 13/8/1 11/6/1 
f 15/9/1 18/12/1 19/13/1 
f 19/13/1 16/10/1 15/9/1 
f 16/10/1 19/13/1 20/14/1 
f 20/14/1 17/11/1 16/10/1 
f 18/12/1 21/15/1 22/16/1 
f 22/16/1 19/13/1 18/12/1 
f 19/13/1 22/16/1 23/17/1 
f 23/17/1 20/14/1 19/13/1 
f 21/15/1 24/2/1 25/18/1 
f 25/18/1 22/16/1 21/15/1 
f 22/16/1 25/18/1 26/3/1 
f 26/3/1 23/17/1 22/16/1 
s 4
f 27/4/2 28/7/2 29/6/2 
f 29/6/2 30/8/2 27/4/2 
f 28/7/2 31/1/2 32/5/2 
f 32/5/2 29/6/2 28/7/2 
f 30/8/2 29/6/2 33/10/2 
f 33/10/2 34/11/2 30/8/2 
f 29/6/2 32/5/2 35/9/2 
f 35/9/2 33/10/2 29/6/2 
f 34/11/2 33/10/2 36/13/2 
f 36/13/2 37/14/2 34/11/2 
f 33/10/2 35/9/2 38/12/2 
f 38/12/2 36/13/2 33/10/2 
f 37/14/2 36/13/2 39/16/2 
f 39/16/2 40/17/2 37/14/2 
f 36/13/2 38/12/2 41/15/2 
f 41/15/2 39/16/2 36/13/2 
f 40/17/2 39/16/2 42/18/2 
f 42/18/2 43/3/2 40/17/2 
f 39/16/2 41/15/2 44/2/2 
f 44/2/2 42/18/2 39/16/2 
s 8
f 9/4/3 12/7/3 45/6/3 
f 45/6/3 46/8/3 9/4/3 
f 12/7/3 14/1/3 47/5/3 
f 47/5/3 45/6/3 12/7/3 
f 46/8/3 45/6/3 48/10/3 
f 48/10/3 49/11/3 46/8/3 
f 45/6/3 47/5/3 50/9/3 
f 50/9/3 48/10/3 45/6/3 
f 49/11/3 48/10/3 51/13/3 
f 51/13/3 52/14/3 49/11/3 
f 48/10/3 50/9/3 53/12/3 
f 53/12/3 51/13/3 48/10/3 
f 52/14/3 51/13/3 54/16/3 
f 54/16/3 55/17/3 52/14/3 
f 51/13/3 53/12/3 56/15/3 
f 56/15/3 54/16/3 51/13/3 
f 55/17/3 54/16/3 28/18/3 
f 28/18/3 27/3/3 55/17/3 
f 54/16/3 56/15/3 31/2/3 
f 31/2/3 28/18/3 54/16/3 
s 16
f 14/4/4 13/19/4 57/20/4 
f 57/20/4 47/8/4 14/4/4 
f 13/19/4 17/21/4 58/22/4 
f 58/22/4 57/20/4 13/19/4 
f 17/21/4 20/23/4 59/24/4 
f 59/24/4 58/22/4 17/21/4 
f 20/23/4 23/25/4 60/26/4 
f 60/26/4 59/24/4 20/23/4 
f 23/25/4 26/1/4 61/5/4 
f 61/5/4 60/26/4 23/25/4 
f 47/8/4 57/20/4 62/27/4 
f 62/27/4 50/11/4 47/8/4 
f 57/20/4 58/22/4 63/28/4 
f 63/28/4 62/27/4 57/20/4 
f 58/22/4 59/24/4 64/29/4 
f 64/29/4 63/28/4 58/22/4 
f 59/24/4 60/26/4 65/30/4 
f 65/30/4 64/29/4 59/24/4 
f 60/26/4 61/5/4 66/9/4 
f 66/9/4 65/30/4 60/26/4 
f 50/11/4 62/27/4 67/31/4 
f 67/31/4 53/14/4 50/11/4 
f 62/27/4 63/28/4 68/32/4 
f 68/32/4 67/31/4 62/27/4 
f 63/28/4 64/29/4 69/33/4 
f 69/33/4 68/32/4 63/28/4 
f 64/29/4 65/30/4 70/34/4 
f 70/34/4 69/33/4 64/29/4 
f 65/30/4 66/9/4 71/12/4 
f 71/12/4 70/34/4 65/30/4 
f 53/14/4 67/31/4 72/35/4 
f 72/35/4 56/17/4 53/14/4 
f 67/31/4 68/32/4 73/36/4 
f 73/36/4 72/35/4 67/31/4 
f 68/32/4 69/33/4 74/37/4 
f 74/37/4 73/36/4 68/32/4 
f 69/33/4 70/34/4 75/38/4 
f 75/38/4 74/37/4 69/33/4 
f 70/34/4 71/12/4 76/15/4 
f 76/15/4 75/38/4 70/34/4 
f 56/17/4 72/35/4 32/39/4 
f 32/39/4 31/3/4 56/17/4 
f 72/35/4 73/36/4 35/40/4 
f 35/40/4 32/39/4 72/35/4 
f 73/36/4 74/37/4 38/41/4 
f 38/41/4 35/40/4 73/36/4 
f 74/37/4 75/38/4 41/42/4 
f 41/42/4 38/41/4 74/37/4 
f 75/38/4 76/15/4 44/2/4 
f 44/2/4 41/42/4 75/38/4 
s 32
f 26/4/5 25/7/5 77/6/5 
f 77/6/5 61/8/5 26/4/5 
f 25/7/5 24/1/5 78/5/5 
f 78/5/5 77/6/5 25/7/5 
f 61/8/5 77/6/5 79/10/5 
f 79/10/5 66/11/5 61/8/5 
f 77/6/5 78/5/5 80/9/5 
f 80/9/5 79/10/5 77/6/5 
f 66/11/5 79/10/5 81/13/5 
f 81/13/5 71/14/5 66/11/5 
f 79/10/5 80/9/5 82/12/5 
f 82/12/5 81/13/5 79/10/5 
f 71/14/5 81/13/5 83/16/5 
f 83/16/5 76/17/5 71/14/5 
f 81/13/5 82/12/5 84/15/5 
f 84/15/5 83/16/5 81/13/5 
f 76/17/5 83/16/5 42/18/5 
f 42/18/5 44/3/5 76/17/5 
f 83/16/5 84/15/5 43/2/5 
f 43/2/5 42/18/5 83/16/5 
s 64
f 24/4/6 21/19/6 85/20/7 
f 85/20/7 78/8/6 24/4/6 
f 21/19/6 18/21/6 86/22/8 
f 86/22/8 85/20/7 21/19/6 
f 18/21/6 15/23/6 87/24/9 
f 87/24/9 86/22/8 18/21/6 
f 15/23/6 10/25/6 88/26/6 
f 88/26/6 87/24/9 15/23/6 
f 10/25/6 9/1/6 46/5/6 
f 46/5/6 88/26/6 10/25/6 
f 78/8/6 85/20/7 89/27/10 
f 89/27/10 80/11/6 78/8/6 
f 85/20/7 86/22/8 90/28/11 
f 90/28/11 89/27/10 85/20/7 
f 86/22/8 87/24/9 91/29/12 
f 91/29/12 90/28/11 86/22/8 
f 87/24/9 88/26/6 92/30/13 
f 92/30/13 91/29/12 87/24/9 
f 88/26/6 46/5/6 49/9/6 
f 49/9/6 92/30/13 88/26/6 
f 80/11/6 89/27/10 93/31/14 
f 93/31/14 82/14/6 80/11/6 
f 89/27/10 90/28/11 94/32/15 
f 94/32/15 93/31/14 89/27/10 
f 90/28/11 91/29/12 95/33/16 
f 95/33/16 94/32/15 90/28/11 
f 91/29/12 92/30/13 96/34/17 
f 96/34/17 95/33/16 91/29/12 
f 92/30/13 49/9/6 52/12/6 
f 52/12/6 96/34/17 92/30/13 
f 82/14/6 93/31/14 97/35/6 
f 97/35/6 84/17/6 82/14/6 
f 93/31/14 94/32/15 98/36/18 
f 98/36/18 97/35/6 93/31/14 
f 94/32/15 95/33/16 99/37/19 
f 99/37/19 98/36/18 94/32/15 
f 95/33/16 96/34/17 100/38/20 
f 100/38/20 99/37/19 95/33/16 
f 96/34/17 52/12/6 55/15/6 
f 55/15/6 100/38/20 96/34/17 
f 84/17/6 97/35/6 40/39/6 
f 40/39/6 43/3/6 84/17/6 
f 97/35/6 98/36/18 37/40/6 
f 37/40/6 40/39/6 97/35/6 
f 98/36/18 99/37/19 34/41/6 
f 34/41/6 37/40/6 98/36/18 
f 99/37/19 100/38/20 30/42/6 
f 30/42/6 34/41/6 99/37/19 
f 100/38/20 55/15/6 27/2/6 
f 27/2/6 30/42/6 100/38/20 
# 192 faces

#
# object Box023
#

#
# object Box024
#

#
# object Box025
#

#
# object Box026
#

#
# object Box027
#

#
# object Box028
#

