# 3ds Max Wavefront OBJ Exporter v0.99 - (c)2007 guruware
# File Created: 12.04.2022 09:25:01

mtllib ala2.mtl

#
# object alal2
#

v  -0.5161 0.2257 -0.2099
v  -0.5161 -0.0324 -0.2099
v  -0.5161 -0.0324 -0.0809
v  -0.5161 0.3547 -0.0809
v  -0.5161 0.2257 -0.4680
v  -0.5161 0.3547 -0.4680
v  -0.3871 0.0966 -0.2099
v  -0.3871 -0.0324 -0.5970
v  -0.3871 -0.0324 -0.2099
v  -0.3871 0.0966 -0.4680
v  -0.3871 0.2257 -0.4680
v  -0.3871 0.2257 -0.5970
v  -0.3871 0.3547 -0.4680
v  -0.3871 0.2257 -0.7260
v  -0.3871 0.3547 -0.5970
v  -0.3871 0.3547 -0.7260
v  -0.3871 0.4837 -0.4680
v  -0.3871 0.3547 -0.3390
v  -0.3871 0.4837 -0.5970
v  -0.3871 0.3547 -0.8551
v  -0.3871 0.4837 -0.7260
v  -0.3871 0.4837 -0.8551
v  -0.3871 0.6127 -0.3390
v  -0.3871 0.6127 -0.7260
v  -0.2581 0.8708 -0.5970
v  -0.2581 0.6127 -0.7260
v  -0.2581 0.6127 -0.5970
v  -0.2581 0.8708 -0.7260
v  -0.2581 0.9998 -0.7260
v  -0.2581 0.8708 -0.8551
v  -0.2581 0.9998 -0.8551
v  -0.1290 0.8708 -0.7260
v  -0.1290 0.4837 -0.8551
v  -0.1290 0.4837 -0.7260
v  -0.1290 0.8708 -0.8551
v  0.0000 0.2257 -0.5970
v  0.0000 -0.0324 -0.7260
v  0.0000 -0.0324 -0.5970
v  0.0000 0.2257 -0.7260
v  0.0000 0.3547 -0.7260
v  0.0000 0.2257 -0.8551
v  0.0000 0.3547 -0.8551
v  0.2581 0.8708 -0.7260
v  0.2581 0.7418 -0.7260
v  0.2581 0.7418 -0.5970
v  0.2581 0.9998 -0.5970
v  0.2581 0.9998 -0.7260
v  0.5161 0.4837 -0.4680
v  0.5161 0.3547 -0.4680
v  0.5161 0.3547 -0.3390
v  0.5161 0.6127 -0.3390
v  0.5161 0.4837 -0.5970
v  0.5161 0.6127 -0.5970
v  0.6451 0.2257 -0.2099
v  0.6451 0.0966 -0.2099
v  0.6451 0.0966 -0.0809
v  0.6451 0.3547 -0.0809
v  0.6451 0.2257 -0.3390
v  0.6451 0.3547 -0.3390
v  -0.3871 0.0966 -0.0809
v  -0.3871 0.2257 -0.2099
v  -0.3871 0.2257 -0.3390
v  -0.3871 0.3547 -0.0809
v  -0.2581 0.3547 -0.3390
v  -0.2581 0.3547 -0.4680
v  -0.2581 0.4837 -0.4680
v  -0.2581 0.4837 -0.5970
v  -0.2581 0.6127 -0.3390
v  -0.1290 0.7418 -0.5970
v  -0.1290 0.7418 -0.7260
v  -0.1290 0.8708 -0.5970
v  0.0000 0.0966 -0.4680
v  0.0000 0.0966 -0.5970
v  0.0000 0.2257 -0.4680
v  0.0000 0.3547 -0.4680
v  0.0000 0.3547 -0.5970
v  0.0000 0.4837 -0.5970
v  0.0000 0.4837 -0.7260
v  0.2581 0.4837 -0.7260
v  0.2581 0.4837 -0.8551
v  0.2581 0.7418 -0.8551
v  0.3871 0.6127 -0.5970
v  0.3871 0.6127 -0.7260
v  0.3871 0.7418 -0.7260
v  0.3871 0.9998 -0.5970
v  0.3871 0.7418 -0.8551
v  0.3871 0.9998 -0.8551
v  0.6451 0.3547 -0.4680
v  0.6451 0.4837 -0.4680
v  0.6451 0.4837 -0.7260
v  0.6451 0.6127 -0.3390
v  0.6451 0.6127 -0.7260
v  0.7742 -0.0324 -0.2099
v  0.7742 -0.0324 -0.7260
v  0.7742 0.0966 -0.2099
v  0.7742 -0.0324 -0.0809
v  0.7742 0.0966 -0.5970
v  0.7742 0.2257 -0.2099
v  0.7742 0.2257 -0.7260
v  0.7742 0.2257 -0.4680
v  0.7742 0.3547 -0.0809
v  0.7742 0.3547 -0.4680
v  0.7742 0.2257 -0.8551
v  0.7742 0.3547 -0.5970
v  0.7742 0.3547 -0.7260
v  0.7742 0.4837 -0.7260
v  0.7742 0.4837 -0.8551
v  -0.3871 -0.0324 -0.0809
v  -0.1290 -0.0324 -0.0809
v  -0.1290 0.0966 -0.0809
v  0.0000 -0.0324 -0.0809
v  0.0000 0.0966 -0.0809
v  0.2581 -0.0324 -0.0809
v  0.2581 0.0966 -0.0809
v  0.3871 -0.0324 -0.0809
v  0.3871 0.0966 -0.0809
v  0.6451 -0.0324 -0.0809
v  -0.1290 0.0966 -0.4680
v  -0.1290 0.2257 -0.4680
v  -0.1290 0.3547 -0.5970
v  -0.1290 0.4837 -0.5970
v  0.2581 0.0966 -0.5970
v  0.2581 0.3547 -0.5970
v  0.3871 0.0966 -0.5970
v  0.3871 0.3547 -0.5970
v  0.0000 0.7418 -0.7260
v  0.0000 0.8708 -0.7260
v  0.1290 0.3547 -0.7260
v  0.1290 0.4837 -0.7260
v  0.1290 0.7418 -0.7260
v  0.1290 0.8708 -0.7260
v  0.2581 0.3547 -0.7260
v  0.3871 0.3547 -0.7260
v  0.3871 0.4837 -0.7260
v  -0.1290 -0.0324 -0.5970
v  -0.1290 0.2257 -0.5970
v  -0.1290 0.2257 -0.7260
v  -0.1290 0.3547 -0.7260
v  0.2581 -0.0324 -0.7260
v  0.2581 0.2257 -0.7260
v  0.3871 -0.0324 -0.7260
v  0.3871 0.2257 -0.7260
v  -0.1290 0.3547 -0.8551
v  0.0000 0.4837 -0.8551
v  0.0000 0.8708 -0.8551
v  0.1290 0.3547 -0.8551
v  0.1290 0.8708 -0.8551
v  0.2581 0.2257 -0.8551
v  0.2581 0.8708 -0.8551
v  0.3871 0.2257 -0.8551
v  0.3871 0.4837 -0.8551
v  -0.1290 -0.0324 -0.2099
v  0.0000 -0.0324 -0.2099
v  0.2581 -0.0324 -0.2099
v  0.3871 -0.0324 -0.2099
v  -0.1290 0.3547 -0.4680
# 156 vertices

vn -1.0000 0.0000 -0.0000
vn 1.0000 0.0000 -0.0000
vn 0.0000 0.0000 1.0000
vn 0.0000 0.0000 -1.0000
vn 0.0000 -1.0000 -0.0000
vn 0.0000 1.0000 -0.0000
# 6 vertex normals

vt 0.9551 0.5000 0.0000
vt 0.1543 0.5000 0.0000
vt 0.9902 0.5000 0.0000
# 3 texture coords

o alal2
g alal2
usemtl palette
s 1
f 1/1/1 2/1/1 3/1/1 
f 4/1/1 5/1/1 1/1/1 
f 4/1/1 1/1/1 3/1/1 
f 6/1/1 5/1/1 4/1/1 
f 7/2/1 8/2/1 9/2/1 
f 10/2/1 8/2/1 7/2/1 
f 11/2/1 8/2/1 10/2/1 
f 12/2/1 8/2/1 11/2/1 
f 13/2/1 12/2/1 11/2/1 
f 13/2/1 14/2/1 12/2/1 
f 15/2/1 14/2/1 13/2/1 
f 16/2/1 14/2/1 15/2/1 
f 17/1/1 13/1/1 18/1/1 
f 19/2/1 16/2/1 15/2/1 
f 19/2/1 20/2/1 16/2/1 
f 21/2/1 20/2/1 19/2/1 
f 22/2/1 20/2/1 21/2/1 
f 23/1/1 17/1/1 18/1/1 
f 23/1/1 19/1/1 17/1/1 
f 23/1/1 21/1/1 19/1/1 
f 24/1/1 21/1/1 23/1/1 
f 25/1/1 26/1/1 27/1/1 
f 28/1/1 26/1/1 25/1/1 
f 29/1/1 30/1/1 28/1/1 
f 31/1/1 30/1/1 29/1/1 
f 32/2/1 33/2/1 34/2/1 
f 35/2/1 33/2/1 32/2/1 
f 36/2/1 37/2/1 38/2/1 
f 39/2/1 37/2/1 36/2/1 
f 40/2/1 41/2/1 39/2/1 
f 42/2/1 41/2/1 40/2/1 
f 43/1/1 44/1/1 45/1/1 
f 46/1/1 43/1/1 45/1/1 
f 47/1/1 43/1/1 46/1/1 
f 48/1/1 49/1/1 50/1/1 
f 51/1/1 52/1/1 48/1/1 
f 51/1/1 48/1/1 50/1/1 
f 53/1/1 52/1/1 51/1/1 
f 54/1/1 55/1/1 56/1/1 
f 57/1/1 58/1/1 54/1/1 
f 57/1/1 54/1/1 56/1/1 
f 59/1/1 58/1/1 57/1/1 
f 60/1/2 7/1/2 61/1/2 
f 61/1/2 62/1/2 63/1/2 
f 60/1/2 61/1/2 63/1/2 
f 63/1/2 62/1/2 18/1/2 
f 64/1/2 65/1/2 66/1/2 
f 66/1/2 67/1/2 68/1/2 
f 64/1/2 66/1/2 68/1/2 
f 68/1/2 67/1/2 27/1/2 
f 69/1/2 70/1/2 71/1/2 
f 71/1/2 70/1/2 32/1/2 
f 72/3/2 73/3/2 74/3/2 
f 74/3/2 73/3/2 75/3/2 
f 75/3/2 73/3/2 76/3/2 
f 76/3/2 40/3/2 77/3/2 
f 77/3/2 40/3/2 78/3/2 
f 79/2/2 80/2/2 44/2/2 
f 44/2/2 80/2/2 81/2/2 
f 82/1/2 83/1/2 84/1/2 
f 82/1/2 84/1/2 85/1/2 
f 84/1/2 86/1/2 85/1/2 
f 85/1/2 86/1/2 87/1/2 
f 59/1/2 88/1/2 89/1/2 
f 89/1/2 90/1/2 91/1/2 
f 59/1/2 89/1/2 91/1/2 
f 91/1/2 90/1/2 92/1/2 
f 93/2/2 94/2/2 95/2/2 
f 96/1/2 93/1/2 95/1/2 
f 95/2/2 94/2/2 97/2/2 
f 96/1/2 95/1/2 98/1/2 
f 97/2/2 94/2/2 99/2/2 
f 98/1/2 100/1/2 101/1/2 
f 96/1/2 98/1/2 101/1/2 
f 101/1/2 100/1/2 102/1/2 
f 99/2/2 103/2/2 104/2/2 
f 97/2/2 99/2/2 104/2/2 
f 104/2/2 103/2/2 105/2/2 
f 105/2/2 103/2/2 106/2/2 
f 106/2/2 103/2/2 107/2/2 
f 108/1/3 4/1/3 3/1/3 
f 60/1/3 4/1/3 108/1/3 
f 63/1/3 4/1/3 60/1/3 
f 109/2/3 60/2/3 108/2/3 
f 110/2/3 60/2/3 109/2/3 
f 111/3/3 110/3/3 109/3/3 
f 112/3/3 110/3/3 111/3/3 
f 113/2/3 112/2/3 111/2/3 
f 114/2/3 112/2/3 113/2/3 
f 115/3/3 114/3/3 113/3/3 
f 116/3/3 114/3/3 115/3/3 
f 117/2/3 116/2/3 115/2/3 
f 56/2/3 116/2/3 117/2/3 
f 96/1/3 56/1/3 117/1/3 
f 96/1/3 57/1/3 56/1/3 
f 101/1/3 57/1/3 96/1/3 
f 64/1/3 18/1/3 62/1/3 
f 64/1/3 23/1/3 18/1/3 
f 68/1/3 23/1/3 64/1/3 
f 50/1/3 64/1/3 62/1/3 
f 58/1/3 50/1/3 62/1/3 
f 58/1/3 51/1/3 50/1/3 
f 59/1/3 51/1/3 58/1/3 
f 91/1/3 51/1/3 59/1/3 
f 118/2/3 11/2/3 10/2/3 
f 119/2/3 11/2/3 118/2/3 
f 72/3/3 119/3/3 118/3/3 
f 74/3/3 119/3/3 72/3/3 
f 67/2/3 19/2/3 15/2/3 
f 120/2/3 67/2/3 15/2/3 
f 121/1/3 25/1/3 27/1/3 
f 121/2/3 67/2/3 120/2/3 
f 121/1/3 27/1/3 67/1/3 
f 69/1/3 25/1/3 121/1/3 
f 71/1/3 25/1/3 69/1/3 
f 76/3/3 121/3/3 120/3/3 
f 77/1/3 69/1/3 121/1/3 
f 77/3/3 121/3/3 76/3/3 
f 122/2/3 76/2/3 73/2/3 
f 123/2/3 76/2/3 122/2/3 
f 45/1/3 69/1/3 77/1/3 
f 124/3/3 123/3/3 122/3/3 
f 125/3/3 123/3/3 124/3/3 
f 82/1/3 45/1/3 77/1/3 
f 82/1/3 46/1/3 45/1/3 
f 85/1/3 46/1/3 82/1/3 
f 52/1/3 82/1/3 77/1/3 
f 53/1/3 82/1/3 52/1/3 
f 97/2/3 125/2/3 124/2/3 
f 104/2/3 125/2/3 97/2/3 
f 32/1/3 29/1/3 28/1/3 
f 126/2/3 32/2/3 70/2/3 
f 127/1/3 29/1/3 32/1/3 
f 127/2/3 32/2/3 126/2/3 
f 128/3/3 78/3/3 40/3/3 
f 129/3/3 78/3/3 128/3/3 
f 130/3/3 127/3/3 126/3/3 
f 131/1/3 29/1/3 127/1/3 
f 131/3/3 127/3/3 130/3/3 
f 132/2/3 129/2/3 128/2/3 
f 79/2/3 129/2/3 132/2/3 
f 44/2/3 131/2/3 130/2/3 
f 43/1/3 29/1/3 131/1/3 
f 43/2/3 131/2/3 44/2/3 
f 47/1/3 29/1/3 43/1/3 
f 133/3/3 79/3/3 132/3/3 
f 134/3/3 79/3/3 133/3/3 
f 90/2/3 134/2/3 133/2/3 
f 105/2/3 90/2/3 133/2/3 
f 106/2/3 90/2/3 105/2/3 
f 2/1/4 1/1/4 9/1/4 
f 9/1/4 1/1/4 7/1/4 
f 7/1/4 1/1/4 61/1/4 
f 55/1/4 54/1/4 95/1/4 
f 95/1/4 54/1/4 98/1/4 
f 5/1/4 6/1/4 11/1/4 
f 11/1/4 6/1/4 13/1/4 
f 13/1/4 17/1/4 65/1/4 
f 65/1/4 17/1/4 66/1/4 
f 74/1/4 75/1/4 49/1/4 
f 74/1/4 49/1/4 88/1/4 
f 49/1/4 48/1/4 88/1/4 
f 88/1/4 48/1/4 89/1/4 
f 74/1/4 88/1/4 100/1/4 
f 100/1/4 88/1/4 102/1/4 
f 8/2/4 12/2/4 135/2/4 
f 135/2/4 12/2/4 136/2/4 
f 135/3/4 136/3/4 38/3/4 
f 38/3/4 136/3/4 36/3/4 
f 21/1/4 24/1/4 26/1/4 
f 14/2/4 16/2/4 137/2/4 
f 137/2/4 16/2/4 138/2/4 
f 26/1/4 28/1/4 34/1/4 
f 21/1/4 26/1/4 34/1/4 
f 34/1/4 28/1/4 32/1/4 
f 137/3/4 138/3/4 39/3/4 
f 39/3/4 138/3/4 40/3/4 
f 37/2/4 39/2/4 139/2/4 
f 139/2/4 39/2/4 140/2/4 
f 139/3/4 140/3/4 141/3/4 
f 141/3/4 140/3/4 142/3/4 
f 79/1/4 44/1/4 134/1/4 
f 134/1/4 44/1/4 83/1/4 
f 83/1/4 44/1/4 84/1/4 
f 134/1/4 83/1/4 90/1/4 
f 90/1/4 83/1/4 92/1/4 
f 141/2/4 142/2/4 94/2/4 
f 94/2/4 142/2/4 99/2/4 
f 20/2/4 22/2/4 143/2/4 
f 143/2/4 22/2/4 33/2/4 
f 30/1/4 31/1/4 35/1/4 
f 143/3/4 33/3/4 42/3/4 
f 33/2/4 35/2/4 144/2/4 
f 42/3/4 33/3/4 144/3/4 
f 35/1/4 31/1/4 145/1/4 
f 144/2/4 35/2/4 145/2/4 
f 41/2/4 42/2/4 146/2/4 
f 42/3/4 144/3/4 146/3/4 
f 144/3/4 145/3/4 146/3/4 
f 145/1/4 31/1/4 147/1/4 
f 146/3/4 145/3/4 147/3/4 
f 41/2/4 146/2/4 148/2/4 
f 146/2/4 147/2/4 148/2/4 
f 148/2/4 147/2/4 80/2/4 
f 80/2/4 147/2/4 81/2/4 
f 147/1/4 31/1/4 149/1/4 
f 81/2/4 147/2/4 149/2/4 
f 148/3/4 80/3/4 150/3/4 
f 150/3/4 80/3/4 151/3/4 
f 81/1/4 149/1/4 86/1/4 
f 149/1/4 31/1/4 87/1/4 
f 86/1/4 149/1/4 87/1/4 
f 150/2/4 151/2/4 103/2/4 
f 103/2/4 151/2/4 107/2/4 
f 8/2/5 152/2/5 9/2/5 
f 135/3/5 153/3/5 152/3/5 
f 135/2/5 152/2/5 8/2/5 
f 38/2/5 154/2/5 153/2/5 
f 38/3/5 153/3/5 135/3/5 
f 37/2/5 154/2/5 38/2/5 
f 139/3/5 155/3/5 154/3/5 
f 139/2/5 154/2/5 37/2/5 
f 141/2/5 93/2/5 155/2/5 
f 141/3/5 155/3/5 139/3/5 
f 94/2/5 93/2/5 141/2/5 
f 62/1/5 61/1/5 1/1/5 
f 58/1/5 98/1/5 54/1/5 
f 5/1/5 62/1/5 1/1/5 
f 5/1/5 58/1/5 62/1/5 
f 11/1/5 58/1/5 5/1/5 
f 119/1/5 58/1/5 11/1/5 
f 74/1/5 58/1/5 119/1/5 
f 100/1/5 98/1/5 58/1/5 
f 100/1/5 58/1/5 74/1/5 
f 14/2/5 136/2/5 12/2/5 
f 137/3/5 36/3/5 136/3/5 
f 137/2/5 136/2/5 14/2/5 
f 39/3/5 36/3/5 137/3/5 
f 41/2/5 140/2/5 39/2/5 
f 148/3/5 142/3/5 140/3/5 
f 148/2/5 140/2/5 41/2/5 
f 150/2/5 99/2/5 142/2/5 
f 150/3/5 142/3/5 148/3/5 
f 103/2/5 99/2/5 150/2/5 
f 20/2/5 138/2/5 16/2/5 
f 143/3/5 40/3/5 138/3/5 
f 143/2/5 138/2/5 20/2/5 
f 42/3/5 40/3/5 143/3/5 
f 19/1/5 66/1/5 17/1/5 
f 67/1/5 66/1/5 19/1/5 
f 52/1/5 89/1/5 48/1/5 
f 78/1/5 52/1/5 77/1/5 
f 129/1/5 52/1/5 78/1/5 
f 79/1/5 52/1/5 129/1/5 
f 134/1/5 52/1/5 79/1/5 
f 90/1/5 89/1/5 52/1/5 
f 90/1/5 52/1/5 134/1/5 
f 81/1/5 84/1/5 44/1/5 
f 86/1/5 84/1/5 81/1/5 
f 30/1/5 32/1/5 28/1/5 
f 35/1/5 32/1/5 30/1/5 
f 60/2/6 110/2/6 7/2/6 
f 116/2/6 56/2/6 55/2/6 
f 7/2/6 110/2/6 10/2/6 
f 110/3/6 112/3/6 118/3/6 
f 10/2/6 110/2/6 118/2/6 
f 112/2/6 114/2/6 72/2/6 
f 118/3/6 112/3/6 72/3/6 
f 72/2/6 114/2/6 73/2/6 
f 114/3/6 116/3/6 122/3/6 
f 73/2/6 114/2/6 122/2/6 
f 55/2/6 95/2/6 124/2/6 
f 122/3/6 116/3/6 124/3/6 
f 116/2/6 55/2/6 124/2/6 
f 124/2/6 95/2/6 97/2/6 
f 4/1/6 63/1/6 18/1/6 
f 57/1/6 101/1/6 59/1/6 
f 4/1/6 18/1/6 6/1/6 
f 6/1/6 18/1/6 13/1/6 
f 64/1/6 50/1/6 65/1/6 
f 65/1/6 50/1/6 156/1/6 
f 156/1/6 50/1/6 75/1/6 
f 75/1/6 50/1/6 49/1/6 
f 59/1/6 101/1/6 88/1/6 
f 88/1/6 101/1/6 102/1/6 
f 13/2/6 65/2/6 15/2/6 
f 65/2/6 156/2/6 15/2/6 
f 156/3/6 75/3/6 120/3/6 
f 15/2/6 156/2/6 120/2/6 
f 120/3/6 75/3/6 76/3/6 
f 76/2/6 123/2/6 40/2/6 
f 40/2/6 123/2/6 128/2/6 
f 123/3/6 125/3/6 132/3/6 
f 128/2/6 123/2/6 132/2/6 
f 125/2/6 104/2/6 133/2/6 
f 132/3/6 125/3/6 133/3/6 
f 133/2/6 104/2/6 105/2/6 
f 21/2/6 34/2/6 22/2/6 
f 22/2/6 34/2/6 33/2/6 
f 79/3/6 134/3/6 80/3/6 
f 90/2/6 106/2/6 151/2/6 
f 80/3/6 134/3/6 151/3/6 
f 134/2/6 90/2/6 151/2/6 
f 151/2/6 106/2/6 107/2/6 
f 23/1/6 68/1/6 27/1/6 
f 51/1/6 91/1/6 53/1/6 
f 23/1/6 27/1/6 24/1/6 
f 24/1/6 27/1/6 26/1/6 
f 82/1/6 53/1/6 83/1/6 
f 53/1/6 91/1/6 92/1/6 
f 83/1/6 53/1/6 92/1/6 
f 69/1/6 45/1/6 70/1/6 
f 70/1/6 45/1/6 126/1/6 
f 126/1/6 45/1/6 130/1/6 
f 130/1/6 45/1/6 44/1/6 
f 25/1/6 71/1/6 28/1/6 
f 28/1/6 71/1/6 32/1/6 
f 46/1/6 85/1/6 47/1/6 
f 29/1/6 47/1/6 31/1/6 
f 47/1/6 85/1/6 87/1/6 
f 31/1/6 47/1/6 87/1/6 
# 321 faces

