# 3ds Max Wavefront OBJ Exporter v0.99 - (c)2007 guruware
# File Created: 12.04.2022 12:34:39

mtllib ala1.mtl

#
# object ala1
#

v  -1.4721 0.3326 0.7299
v  -1.4721 -0.0354 -0.0061
v  -1.4721 -0.0354 0.7299
v  -1.4721 1.0686 1.0979
v  -1.4721 0.3326 1.0979
v  -1.4721 1.0686 0.7299
v  -1.4721 1.0686 -0.0061
v  -1.4721 1.4366 1.4659
v  -1.4721 1.0686 1.4659
v  -1.4721 1.4366 1.0979
v  -1.4721 1.4366 0.7299
v  -1.4721 2.5406 2.2019
v  -1.4721 1.4366 2.2019
v  -1.4721 2.9086 1.4659
v  -1.4721 2.5406 2.5699
v  -1.4721 2.9086 1.0979
v  -1.4721 4.0126 2.5699
v  -1.4721 4.0126 1.4659
v  1.8399 -0.0354 0.7299
v  1.8399 -0.0354 -0.0061
v  1.8399 0.3326 0.7299
v  1.8399 0.3326 1.0979
v  1.8399 1.0686 1.0979
v  1.8399 1.0686 0.7299
v  1.8399 1.0686 -0.0061
v  1.8399 1.0686 1.4659
v  1.8399 1.4366 1.4659
v  1.8399 1.4366 1.0979
v  1.8399 1.4366 0.7299
v  1.8399 2.5406 2.2019
v  1.8399 1.4366 2.2019
v  1.8399 2.5406 2.5699
v  1.8399 2.9086 1.4659
v  1.8399 2.9086 1.0979
v  1.8399 4.0126 2.5699
v  1.8399 4.0126 1.4659
# 36 vertices

vn -1.0000 0.0000 -0.0000
vn 1.0000 0.0000 -0.0000
vn 0.0000 0.0000 1.0000
vn 0.0000 0.0000 -1.0000
vn 0.0000 -1.0000 -0.0000
vn 0.0000 1.0000 -0.0000
# 6 vertex normals

vt 0.0215 0.5000 0.0000
# 1 texture coords

o ala1
g ala1
usemtl palette
s 1
f 1/1/1 2/1/1 3/1/1 
f 4/1/1 1/1/1 5/1/1 
f 6/1/1 2/1/1 1/1/1 
f 6/1/1 1/1/1 4/1/1 
f 7/1/1 2/1/1 6/1/1 
f 8/1/1 4/1/1 9/1/1 
f 8/1/1 6/1/1 4/1/1 
f 10/1/1 6/1/1 8/1/1 
f 11/1/1 6/1/1 10/1/1 
f 12/1/1 10/1/1 8/1/1 
f 12/1/1 8/1/1 13/1/1 
f 14/1/1 12/1/1 15/1/1 
f 14/1/1 10/1/1 12/1/1 
f 16/1/1 10/1/1 14/1/1 
f 17/1/1 14/1/1 15/1/1 
f 18/1/1 14/1/1 17/1/1 
f 19/1/2 20/1/2 21/1/2 
f 22/1/2 21/1/2 23/1/2 
f 21/1/2 20/1/2 24/1/2 
f 23/1/2 21/1/2 24/1/2 
f 24/1/2 20/1/2 25/1/2 
f 26/1/2 23/1/2 27/1/2 
f 23/1/2 24/1/2 27/1/2 
f 27/1/2 24/1/2 28/1/2 
f 28/1/2 24/1/2 29/1/2 
f 27/1/2 28/1/2 30/1/2 
f 31/1/2 27/1/2 30/1/2 
f 32/1/2 30/1/2 33/1/2 
f 30/1/2 28/1/2 33/1/2 
f 33/1/2 28/1/2 34/1/2 
f 32/1/2 33/1/2 35/1/2 
f 35/1/2 33/1/2 36/1/2 
f 32/1/3 17/1/3 15/1/3 
f 35/1/3 17/1/3 32/1/3 
f 31/1/3 12/1/3 13/1/3 
f 30/1/3 12/1/3 31/1/3 
f 26/1/3 8/1/3 9/1/3 
f 27/1/3 8/1/3 26/1/3 
f 22/1/3 4/1/3 5/1/3 
f 23/1/3 4/1/3 22/1/3 
f 19/1/3 1/1/3 3/1/3 
f 21/1/3 1/1/3 19/1/3 
f 14/1/4 18/1/4 33/1/4 
f 33/1/4 18/1/4 36/1/4 
f 10/1/4 16/1/4 28/1/4 
f 28/1/4 16/1/4 34/1/4 
f 6/1/4 11/1/4 24/1/4 
f 24/1/4 11/1/4 29/1/4 
f 2/1/4 7/1/4 20/1/4 
f 20/1/4 7/1/4 25/1/4 
f 1/1/5 22/1/5 5/1/5 
f 21/1/5 22/1/5 1/1/5 
f 4/1/5 26/1/5 9/1/5 
f 23/1/5 26/1/5 4/1/5 
f 8/1/5 31/1/5 13/1/5 
f 27/1/5 31/1/5 8/1/5 
f 12/1/5 32/1/5 15/1/5 
f 30/1/5 32/1/5 12/1/5 
f 6/1/6 24/1/6 7/1/6 
f 7/1/6 24/1/6 25/1/6 
f 10/1/6 28/1/6 11/1/6 
f 11/1/6 28/1/6 29/1/6 
f 14/1/6 33/1/6 16/1/6 
f 16/1/6 33/1/6 34/1/6 
f 17/1/6 35/1/6 18/1/6 
f 18/1/6 35/1/6 36/1/6 
# 66 faces

